<svg width="24" height="24" viewBox="0 0 24 24" fill="none" xmlns="http://www.w3.org/2000/svg">
<path d="M11.9999 21.6C6.6974 21.6 2.3999 17.3025 2.3999 12C2.3999 6.69753 6.6974 2.40002 11.9999 2.40002C17.3024 2.40002 21.5999 6.69753 21.5999 12C21.5999 17.3025 17.3024 21.6 11.9999 21.6ZM16.4249 7.86377C16.0237 7.57127 15.4612 7.66127 15.1687 8.06252L10.6912 14.22L8.7374 12.2663C8.3849 11.9138 7.8149 11.9138 7.46615 12.2663C7.1174 12.6188 7.11365 13.1888 7.46615 13.5375L10.1662 16.2375C10.3537 16.425 10.6087 16.5188 10.8712 16.5C11.1337 16.4813 11.3737 16.3463 11.5274 16.1325L16.6237 9.12002C16.9162 8.71877 16.8262 8.15627 16.4249 7.86377Z" fill="black"/>
</svg>
