<svg width="24" height="24" viewBox="0 0 24 24" fill="none" xmlns="http://www.w3.org/2000/svg">
<path d="M14.4 4.80002H16.8V20.4C16.8 21.0638 17.3362 21.6 18 21.6H19.2C19.8637 21.6 20.4 21.0638 20.4 20.4C20.4 19.7363 19.8637 19.2 19.2 19.2V4.80002C19.2 3.47627 18.1237 2.40002 16.8 2.40002H13.2H7.19998C5.87623 2.40002 4.79998 3.47627 4.79998 4.80002V19.2C4.13623 19.2 3.59998 19.7363 3.59998 20.4C3.59998 21.0638 4.13623 21.6 4.79998 21.6H13.2C13.8637 21.6 14.4 21.0638 14.4 20.4V4.80002ZM9.59998 12C9.59998 11.3363 10.1362 10.8 10.8 10.8C11.4637 10.8 12 11.3363 12 12C12 12.6638 11.4637 13.2 10.8 13.2C10.1362 13.2 9.59998 12.6638 9.59998 12Z" fill="black"/>
</svg>
