<svg width="24" height="24" viewBox="0 0 24 24" fill="none" xmlns="http://www.w3.org/2000/svg">
<path d="M6.88452 9.71331C7.27505 9.32279 7.90806 9.32279 8.29859 9.71331C8.68909 10.1038 8.6891 10.7369 8.29859 11.1274L6.77222 12.6537C5.51044 13.9166 5.51015 15.9633 6.77222 17.226C8.03497 18.4885 10.0835 18.4892 11.3464 17.227L12.8718 15.7006C13.2623 15.3102 13.8953 15.3104 14.2859 15.7006C14.6764 16.0911 14.6764 16.7242 14.2859 17.1147L12.7605 18.641C10.7165 20.6843 7.40195 20.6836 5.35816 18.6401C3.31504 16.5964 3.31533 13.2836 5.35816 11.2397L6.88452 9.71331Z" fill="black"/>
<path d="M13.3728 9.21136C13.7632 8.82092 14.3963 8.82108 14.7869 9.21136C15.1774 9.60189 15.1774 10.2349 14.7869 10.6254L10.6257 14.7875C10.2352 15.178 9.60119 15.178 9.2107 14.7875C8.82055 14.3971 8.82065 13.7639 9.2107 13.3735L13.3728 9.21136Z" fill="black"/>
<path d="M11.238 5.3598C13.282 3.31625 16.5965 3.31522 18.6404 5.35882C20.6839 7.40286 20.6832 10.7183 18.6394 12.7621L17.115 14.2866C16.7245 14.677 16.0915 14.6769 15.7009 14.2866C15.3104 13.896 15.3104 13.263 15.7009 12.8725L17.2253 11.3481C18.4881 10.0853 18.4878 8.03685 17.2253 6.77386C15.9625 5.51131 13.915 5.51136 12.6521 6.77386L11.1267 8.29925C10.7362 8.68944 10.1031 8.68964 9.71265 8.29925C9.32223 7.90884 9.32245 7.27574 9.71265 6.88519L11.238 5.3598Z" fill="black"/>
</svg>
