<svg width="24" height="24" viewBox="0 0 24 24" fill="none" xmlns="http://www.w3.org/2000/svg">
<path d="M12 15.6426C12.5094 15.6426 12.9227 16.0551 12.9229 16.5645C12.9229 17.074 12.5096 17.4873 12 17.4873C11.4904 17.4873 11.0771 17.074 11.0771 16.5645C11.0773 16.055 11.4905 15.6426 12 15.6426Z" fill="black"/>
<path d="M12.0059 5.96289C12.7232 5.96295 13.2907 6.56938 13.2432 7.28516L12.8027 13.9033C12.7758 14.3078 12.4396 14.6221 12.0342 14.6221C11.6316 14.6218 11.2968 14.3117 11.2666 13.9102L10.7686 7.2959C10.7145 6.57628 11.2842 5.96289 12.0059 5.96289Z" fill="black"/>
<path fill-rule="evenodd" clip-rule="evenodd" d="M12.4834 2.60449C17.4548 2.85635 21.4082 6.96698 21.4082 12.001L21.3955 12.4844C21.1434 17.4554 17.0336 21.4089 12 21.4092L11.5156 21.3965C6.70486 21.1525 2.84747 17.2951 2.60352 12.4844L2.59082 12.001C2.59082 6.80484 6.80392 2.59107 12 2.59082L12.4834 2.60449ZM12 4.5918C7.90849 4.59204 4.59082 7.90941 4.59082 12.001C4.59134 16.0921 7.90881 19.4089 12 19.4092C16.0912 19.4089 19.4077 16.0921 19.4082 12.001C19.4082 7.90942 16.0915 4.59205 12 4.5918Z" fill="black"/>
</svg>
