<svg width="24" height="24" viewBox="0 0 24 24" fill="none" xmlns="http://www.w3.org/2000/svg">
<path d="M19.7999 12C19.7999 7.69127 16.3087 4.20002 11.9999 4.20002C7.69115 4.20002 4.1999 7.69127 4.1999 12C4.1999 16.3088 7.69115 19.8 11.9999 19.8C16.3087 19.8 19.7999 16.3088 19.7999 12ZM2.3999 12C2.3999 6.69753 6.6974 2.40002 11.9999 2.40002C17.3024 2.40002 21.5999 6.69753 21.5999 12C21.5999 17.3025 17.3024 21.6 11.9999 21.6C6.6974 21.6 2.3999 17.3025 2.3999 12ZM11.9999 9.00002C11.3362 9.00002 10.7999 9.53627 10.7999 10.2C10.7999 10.6988 10.3987 11.1 9.8999 11.1C9.40115 11.1 8.9999 10.6988 8.9999 10.2C8.9999 8.54252 10.3424 7.20002 11.9999 7.20002C13.6574 7.20002 14.9999 8.54252 14.9999 10.2C14.9999 11.97 13.6499 12.72 12.8999 12.9938V13.1363C12.8999 13.635 12.4987 14.0363 11.9999 14.0363C11.5012 14.0363 11.0999 13.635 11.0999 13.1363V12.8325C11.0999 12.0638 11.6549 11.5125 12.2287 11.325C12.4687 11.2463 12.7237 11.1188 12.9112 10.9388C13.0724 10.7813 13.1999 10.5638 13.1999 10.2038C13.1999 9.54002 12.6637 9.00378 11.9999 9.00378V9.00002ZM10.7999 16.2C10.7999 15.5363 11.3362 15 11.9999 15C12.6637 15 13.1999 15.5363 13.1999 16.2C13.1999 16.8638 12.6637 17.4 11.9999 17.4C11.3362 17.4 10.7999 16.8638 10.7999 16.2Z" fill="black"/>
</svg>
