<svg width="24" height="24" viewBox="0 0 24 24" fill="none" xmlns="http://www.w3.org/2000/svg">
<path d="M7.07272 5.44979C7.52687 5.13567 8.14986 5.2493 8.46432 5.7037L9.34713 7.00057C10.1857 6.80986 11.1134 6.68811 12.1245 6.68807C14.4192 6.68807 16.3809 7.45212 17.7485 8.19393C18.4355 8.56664 18.9848 8.93961 19.3647 9.22225C19.5548 9.36367 19.7044 9.48261 19.8081 9.56893C19.8597 9.61187 19.9002 9.64714 19.9292 9.67245C19.9435 9.685 19.9557 9.69601 19.9643 9.7037C19.9684 9.70733 19.9723 9.71098 19.9751 9.71346C19.9761 9.71441 19.9772 9.71561 19.978 9.71639L19.9799 9.71737C19.9776 9.72039 19.94 9.76297 19.3891 10.3658L19.9809 9.71834C20.3885 10.0908 20.4166 10.7237 20.0444 11.1314C19.6718 11.5391 19.039 11.5674 18.6313 11.1949C18.6281 11.1921 18.6213 11.1867 18.6128 11.1793C18.5953 11.164 18.5667 11.1394 18.5278 11.107C18.4496 11.0419 18.3289 10.9447 18.1704 10.8267C17.8523 10.5901 17.3843 10.2702 16.7954 9.95077C15.6099 9.30775 13.9796 8.68709 12.1245 8.68709C11.5779 8.68712 11.0605 8.72937 10.5737 8.80135L12.3803 11.4547C13.7437 11.5169 14.9007 11.9885 15.7143 12.4381C16.1541 12.6811 16.5059 12.9247 16.7505 13.1099C16.8729 13.2028 16.9702 13.2824 17.0385 13.3404C17.0724 13.3691 17.0997 13.3931 17.1196 13.4107C17.1294 13.4194 17.1378 13.4275 17.144 13.4332C17.1471 13.4359 17.1507 13.438 17.1528 13.44L17.1577 13.4449C17.5615 13.8211 17.5844 14.4548 17.2085 14.859C16.8322 15.2627 16.1995 15.2846 15.7954 14.9088C15.7954 14.9088 15.7924 14.9065 15.7905 14.9049C15.7821 14.8974 15.7667 14.8837 15.7456 14.8658C15.7026 14.8294 15.6334 14.7726 15.5424 14.7037C15.3596 14.5651 15.0878 14.3767 14.7465 14.1881C14.5226 14.0643 14.2728 13.9438 14.0024 13.8365L17.184 18.5094C17.4984 18.9639 17.3852 19.5868 16.9311 19.901C16.4769 20.2151 15.8539 20.1016 15.5395 19.6471L6.81979 6.84139C6.5055 6.38693 6.61878 5.76401 7.07272 5.44979Z" fill="black"/>
<path d="M12.9096 19.0269C12.6376 19.1773 12.3254 19.2652 11.9926 19.2652C10.9437 19.2651 10.0942 18.4138 10.0942 17.3648C10.0944 16.7865 10.3524 16.2688 10.7602 15.9205L12.9096 19.0269Z" fill="black"/>
<path d="M9.50827 14.0328C9.40279 14.0836 9.30298 14.1352 9.20944 14.1871C8.87651 14.3717 8.62305 14.5556 8.45748 14.6881C8.3752 14.7539 8.31425 14.807 8.2778 14.8404C8.26019 14.8566 8.24789 14.8685 8.24166 14.8746L8.23776 14.8785L8.16647 14.9439C7.77829 15.2694 7.1987 15.2547 6.8276 14.8941C6.43188 14.5091 6.42325 13.8759 6.80807 13.4801L6.84713 13.441C6.86692 13.4218 6.89411 13.3961 6.92721 13.3658C6.99385 13.3048 7.08791 13.2222 7.20748 13.1265C7.4469 12.935 7.79395 12.6853 8.23971 12.4381C8.27906 12.4163 8.31986 12.3954 8.36081 12.3736L9.50827 14.0328Z" fill="black"/>
<path d="M6.81198 10.1334C6.38672 10.3851 6.05096 10.624 5.81393 10.8101C5.66755 10.9251 5.55868 11.0196 5.48971 11.0816C5.45557 11.1123 5.43086 11.1353 5.41647 11.149L5.40182 11.1637L5.4028 11.1617C5.014 11.5534 4.38179 11.5561 3.98971 11.1676C3.59779 10.7788 3.59529 10.1457 3.98385 9.7535L4.45748 10.2222C3.99739 9.76613 3.98394 9.75412 3.98385 9.7535L3.98483 9.75155L3.98678 9.75057L4.00143 9.73592C4.01002 9.72748 4.02166 9.71604 4.03561 9.70272C4.0637 9.6759 4.10235 9.63881 4.15182 9.59432C4.25127 9.50489 4.39469 9.38232 4.57858 9.23788C4.85141 9.02358 5.21719 8.75964 5.67038 8.48397L6.81198 10.1334Z" fill="black"/>
</svg>
