<svg width="24" height="24" viewBox="0 0 24 24" fill="none" xmlns="http://www.w3.org/2000/svg">
<path d="M9.71616 2.75625C9.82866 2.20125 10.3199 1.8 10.8899 1.8H13.1324C13.7024 1.8 14.1937 2.20125 14.3062 2.75625L14.8499 5.38125C15.3787 5.60625 15.8737 5.895 16.3237 6.23625L18.8662 5.3925C19.4062 5.2125 19.9987 5.4375 20.2837 5.9325L21.4049 7.875C21.6899 8.37 21.5887 8.9925 21.1612 9.37125L19.1624 11.1488C19.1962 11.4263 19.2112 11.7113 19.2112 12C19.2112 12.2888 19.1924 12.5738 19.1624 12.8513L21.1649 14.6325C21.5924 15.0113 21.6899 15.6375 21.4087 16.1288L20.2874 18.0713C20.0024 18.5625 19.4099 18.7913 18.8699 18.6113L16.3274 17.7675C15.8737 18.1088 15.3787 18.3938 14.8537 18.6225L14.3137 21.2438C14.1974 21.8025 13.7062 22.2 13.1399 22.2H10.8974C10.3274 22.2 9.83616 21.7988 9.72366 21.2438L9.18366 18.6225C8.65491 18.3975 8.16366 18.1088 7.70991 17.7675L5.15616 18.6113C4.61616 18.7913 4.02366 18.5663 3.73866 18.0713L2.61741 16.1288C2.33241 15.6338 2.43366 15.0113 2.86116 14.6325L4.86366 12.8513C4.82991 12.5738 4.81491 12.2888 4.81491 12C4.81491 11.7113 4.83366 11.4263 4.86366 11.1488L2.86116 9.3675C2.43366 8.98875 2.33616 8.3625 2.61741 7.87125L3.73866 5.92875C4.02366 5.43375 4.61616 5.20875 5.15616 5.38875L7.69866 6.2325C8.15241 5.89125 8.64741 5.60625 9.17241 5.3775L9.71616 2.75625ZM12.0112 15C13.6687 14.9925 15.0074 13.6463 14.9999 11.9888C14.9924 10.3313 13.6462 8.9925 11.9887 9C10.3312 9.0075 8.99241 10.3538 8.99991 12.0113C9.00741 13.6688 10.3537 15.0075 12.0112 15Z" fill="black"/>
</svg>
