<svg width="24" height="24" viewBox="0 0 24 24" fill="none" xmlns="http://www.w3.org/2000/svg">
<path d="M9.31055 13.0664C10.192 13.0664 10.9062 13.7816 10.9062 14.6631V18.4043C10.9061 19.2856 10.1919 20 9.31055 20H5.56934C4.688 20 3.97383 19.2856 3.97363 18.4043V14.6631C3.97363 13.7816 4.68787 13.0664 5.56934 13.0664H9.31055Z" fill="black"/>
<path d="M18.4307 13.0664C19.3121 13.0664 20.0264 13.7816 20.0264 14.6631V18.4043C20.0262 19.2856 19.312 20 18.4307 20H14.6895C13.8081 20 13.0939 19.2856 13.0938 18.4043V14.6631C13.0938 13.7816 13.808 13.0664 14.6895 13.0664H18.4307Z" fill="black"/>
<path d="M9.31055 4C10.1919 4 10.9061 4.71439 10.9062 5.5957V9.33691C10.9062 10.2184 10.192 10.9336 9.31055 10.9336H5.56934C4.68788 10.9336 3.97363 10.2184 3.97363 9.33691V5.5957C3.97382 4.7144 4.688 4.00002 5.56934 4H9.31055Z" fill="black"/>
<path d="M18.4307 4C19.312 4.00003 20.0262 4.71441 20.0264 5.5957V9.33691C20.0264 10.2184 19.3121 10.9336 18.4307 10.9336H14.6895C13.808 10.9336 13.0938 10.2184 13.0938 9.33691V5.5957C13.0939 4.71439 13.8081 4 14.6895 4H18.4307Z" fill="black"/>
</svg>
